<svg xmlns="http://www.w3.org/2000/svg" xmlns:xlink="http://www.w3.org/1999/xlink" width="100%" height="390" viewBox="0 0 676.781 390">
                     <defs>
                        <style>.a,.e,.j{fill:none;}.b{clip-path:url(#a);}.c,.d,.k,.l{fill:#008da9;}.c{opacity:0.5;}.e,.j{stroke:#535461;stroke-miterlimit:10;}.f{opacity:0.1;}.g{fill:url(#b);}.h{fill:#535461;}.i{fill:#fff;}.j{stroke-width:2px;}.k{opacity:0.7;}.l{opacity:0.8;}.m{fill:url(#c);}.n{fill:#fec3be;}.o{fill:#8b416f;}.p{fill:#4d4981;}.q{opacity:0.05;}.r{fill:#fd6f8d;}.s{fill:#784f69;}</style>
                        <clipPath id="a">
                           <rect class="a" width="676.781" height="390"></rect>
                        </clipPath>
                        <linearGradient id="b" x1="0.5" y1="1" x2="0.5" gradientUnits="objectBoundingBox">
                           <stop offset="0" stop-color="gray" stop-opacity="0.251"></stop>
                           <stop offset="0.54" stop-color="gray" stop-opacity="0.122"></stop>
                           <stop offset="1" stop-color="gray" stop-opacity="0.102"></stop>
                        </linearGradient>
                        <linearGradient id="c" y1="1" y2="0" xlink:href="#b"></linearGradient>
                     </defs>
                     <g class="b">
                        <path class="c" d="M615.6,528.373c40.918-14.138,87.7-26.106,125.933-5.789,4.845,2.575,9.62,5.817,12.23,10.641,6.9,12.691-4.065,29.149,1.277,42.564s25.446,20.168,23.8,34.5c-.433,3.746-2.462,7.137-4.852,10.059-14.975,18.3-42.43,20.147-65.634,15.607s-45.9-13.954-69.522-12.769c-22.7,1.171-43.586,12.06-64.385,21.225-35.066,15.493-76.02,26.61-111.057,11.038-16.054-7.137-29.327-19.289-44.692-27.773a110,110,0,0,0-67.89-12.457c-15.607,2.2-30.5,7.733-45.778,11.549-34.69,8.662-70.9,8.378-106.645,8.038-6.654-.064-13.415-.142-19.792-2.043-9.442-2.838-17.231-9.371-24.73-15.763-9.854-8.392-20.232-17.615-23.41-30.164-3.753-14.9,4.015-30.731,15.536-40.854s26.248-15.656,40.621-20.991c3.547-1.305,7.335-2.632,10.967-1.646a14.956,14.956,0,0,1,6.172,3.951c10.2,9.818,18.82,26.425,32.732,23.758,4.966-.951,9.031-4.405,12.961-7.6,20.984-17.026,49.211-30.171,74.537-20.764,18.523,6.881,31.6,24.552,50.368,30.788,13.351,4.441,27.858,2.518,41.9,3.384,20.431,1.249,40.315,8.47,60.775,8.03,52.169-1.121,95.635-51.006,147.591-46.253,4.072.369,8.513,1.305,11.01,4.526" transform="translate(-106.757 -272.952)"></path>
                        <path class="d" d="M294.354,466.773s43.352,26.17-36.591,66.478c0,0-17.614-32.7,1.859-59.37a26.248,26.248,0,0,1,34.051-7.463Z" transform="translate(280.274 -258.805)"></path>
                        <path class="e" d="M303.832,467.52s-37.116,28.376-36.08,67" transform="translate(270.279 -260.098)"></path>
                        <path class="d" d="M873.988,418.822c-8.782,32.115,28.681,123.606,28.681,123.606s78.829-59.682,87.618-91.8A60.3,60.3,0,1,0,874,418.814Z" transform="translate(-847.835 -232.653)"></path>
                        <path class="f" d="M873.988,418.822c-8.782,32.115,28.681,123.606,28.681,123.606s78.829-59.682,87.618-91.8A60.3,60.3,0,1,0,874,418.814Z" transform="translate(-847.835 -232.653)"></path>
                        <path class="e" d="M981.808,378.27s-49.069,74.076-45.4,165.844" transform="translate(-881.919 -234.162)"></path>
                        <path class="d" d="M1015.958,519.076s44.494-24.2,38.861,65.144c0,0-37.116-1.327-50.289-31.6a26.248,26.248,0,0,1,10.776-33.165Z" transform="translate(-1002.325 -274.211)"></path>
                        <path class="e" d="M1003.02,520.52s5.746,46.381,39.592,64.988" transform="translate(-990.118 -275.499)"></path>
                        <path class="d" d="M166.886,504.731s43.373,26.163-36.577,66.45c0,0-17.615-32.7,1.859-59.37a26.248,26.248,0,0,1,34.051-7.463Z" transform="translate(498.149 -269.827)"></path>
                        <path class="e" d="M176.362,505.49s-37.116,28.376-36.08,67" transform="translate(488.177 -271.132)"></path>
                        <path class="g" d="M234.136,460.221h45.579a15.2,15.2,0,0,1-1.589-6.789V245.889a15.259,15.259,0,0,1,15.259-15.259H646.193a15.259,15.259,0,0,1,15.259,15.259v207.55a15.2,15.2,0,0,1-1.589,6.789h47.19a4.037,4.037,0,0,1,4.036,4.058v3.256a22.573,22.573,0,0,1-22.573,22.573H252.673A22.573,22.573,0,0,1,230.1,467.542v-3.256a4.037,4.037,0,0,1,4.036-4.065Zm280.846,12.911,3.93-4.434H421.88l4.327,4.441Z" transform="translate(-110.284 -191.258)"></path>
                        <rect class="h" width="374.65" height="232.677" rx="23.26" transform="translate(172.198 42.309)"></rect>
                        <rect class="i" width="358.086" height="190.084" transform="translate(180.874 76.225)"></rect>
                        <ellipse class="i" cx="3.157" cy="3.157" rx="3.157" ry="3.157" transform="translate(356.757 56.504)"></ellipse>
                        <path class="h" d="M417.145,551.08l12.3,12.62h86.732l11.116-12.62H703.929a3.944,3.944,0,0,1,3.944,3.944V558.2a22.062,22.062,0,0,1-22.062,22.062H259.842A22.062,22.062,0,0,1,237.78,558.2v-3.178a3.944,3.944,0,0,1,3.944-3.944Z" transform="translate(-112.516 -284.38)"></path>
                        <path class="j" d="M526.144,124.19V285.877H258.77" transform="translate(-32.934 -36.132)"></path>
                        <g transform="translate(249.596 96.027)">
                           <rect class="c" width="28.311" height="43.685" transform="translate(0 105.974)"></rect>
                           <rect class="k" width="28.311" height="82.516" transform="translate(48.538 67.142)"></rect>
                           <rect class="c" width="28.311" height="59.051" transform="translate(97.076 90.6)"></rect>
                           <rect class="l" width="28.311" height="95.46" transform="translate(145.613 54.198)"></rect>
                           <rect class="d" width="28.311" height="129.432" transform="translate(194.151 20.22)"></rect>
                           <path class="j" d="M311.02,218.928l49.345-44.492L408.9,216.5l47.73-50.961,48.538-20.227" transform="translate(-297.268 -139.649)"></path>
                           <ellipse class="d" cx="5.661" cy="5.661" rx="5.661" ry="5.661" transform="translate(8.091 73.618)"></ellipse>
                           <ellipse class="d" cx="5.661" cy="5.661" rx="5.661" ry="5.661" transform="translate(105.166 70.38)"></ellipse>
                           <ellipse class="d" cx="5.661" cy="5.661" rx="5.661" ry="5.661" transform="translate(154.512 20.227)"></ellipse>
                           <ellipse class="d" cx="5.661" cy="5.661" rx="5.661" ry="5.661" transform="translate(57.436 28.311)"></ellipse>
                           <ellipse class="d" cx="5.661" cy="5.661" rx="5.661" ry="5.661" transform="translate(202.242)"></ellipse>
                        </g>
                        <path class="m" d="M765.171,448.739c2.909-.958,7.222-2.064,10.641-1.674,3.256-1.185,10.911-4.256,16.139-8.882a116.41,116.41,0,0,1,.348-13.635c2.675-30.412-3.341-50.46-3.341-50.46s-4.725-15.295-4.207-27.986c-.305.575-.475.915-.475.915-.411-10.946-4.143-22.275-6.938-29.334a2.353,2.353,0,0,1-.312-.114l-3.121-7.406a6.429,6.429,0,0,1-.589-1.369l-.5-1.17.149-.064c-.05-.192-.1-.4-.149-.6h0c-1.993-8.435-3.547-28.44-3.547-28.44-5.349-21.055,7.349-34.051,7.349-34.051l21.552-18.544a2.733,2.733,0,0,0-.213.759l.177-.156c.3-.873.638-1.915.965-3.107a18.219,18.219,0,0,1-6.959-10.442,32.684,32.684,0,0,1-.319-7.8l.355-8.946a28.381,28.381,0,0,1,.532-5.214c1.625-7.094,8.9-12.06,16.2-12.386a59.19,59.19,0,0,1,6.952.369,46.774,46.774,0,0,0,5.675.121,1.022,1.022,0,0,0,.61-.163.894.894,0,0,0,.262-.617,3.078,3.078,0,0,0-.752-2.306,2.837,2.837,0,0,0-.979-.56l.518.121a2.837,2.837,0,0,0-.851-.461,16.524,16.524,0,0,1,5.377,1.951,6.941,6.941,0,0,1,1.256,1.057,5.483,5.483,0,0,1,1.816,3.377,6.283,6.283,0,0,0,1.915-2.838,2.837,2.837,0,0,0,0-1.376q.192.234.369.482v-.149a14.344,14.344,0,0,1,2.838,5.775,2.249,2.249,0,0,0,.511-1.66q.16.5.3,1a2.314,2.314,0,0,0,0-.667,22.849,22.849,0,0,1,1.114,7.931c0,2.682-1.192,6.86-4.065,7.8-.149.05-.3.085-.454.121a18.04,18.04,0,0,1-12.166,27.553q-.071.489-.135,1.029h-.114c-.078.709-.142,1.49-.185,2.284a15.374,15.374,0,0,0,2.37,1.9,19.537,19.537,0,0,0,7.889,2.611,23.482,23.482,0,0,1,9.485,2.838c3.441,1.922,7.236,4.725,8.428,8.13,1.986,5.675,12.925,14.507,20.261,15.607l2.611-.149.192-.057v.05l.638-.035h.206v.035l.66-.035s.064.3.156.844c3.689-1.27,11.528-4.788,21.729-14.046,11.35-10.308,26.709-8.279,32.633-6.981a1.014,1.014,0,0,1,.27,1.88c-2.391,1.312-6.094,3.221-7.8,3.433,0,0,3.547,3.71-.227,5.675a2.739,2.739,0,0,1-2.838-.277c-1.83-1.341-6.917,1.7-14.287,3.277,0,0-20.8,21.523-31.129,24.829a14.875,14.875,0,0,1-.788,1.369l-.638-.05v.05h-.27l-.078.709s-16.061-.844-21.282-6.675a8.364,8.364,0,0,1-1.014-1.085l5.583,70.231h-.05l.05.667h-4.107a154.82,154.82,0,0,0,1.114,25.865V415.2s.213,4.029-8.158,9.932a312.891,312.891,0,0,0-25.34,19.643l-1.014.88c1.539,14.011,4.76,40.124,7.449,41.1l-1.66.291c2.838,3.6,10.9,13.479,13.351,13.741,3.008.333,5.015,5.015,0,6.016A56.192,56.192,0,0,1,803.3,503.86a4.547,4.547,0,0,1-2.838-4.838l.972-7.378a1.036,1.036,0,0,0-.426.447c-.667,2.008,0-2.674,0-2.674a209.062,209.062,0,0,1-6.463-26.957l-9.932,8.584s-.2-.248-.546-.709c-2.433,5.519-6.775,16.813-5.8,25.084,1.334,11.35-11.35,1.334-10.024-5.349,1.078-5.406-3.746-28.319-5.626-36.889A3.81,3.81,0,0,1,765.171,448.739Z" transform="translate(-703.66 -175.13)"></path>
                        <path class="n" d="M768.48,290.383s9.463-1.632,23.5-14.358c11.1-10.066,26.078-8.087,31.852-6.817a.986.986,0,0,1,.262,1.83c-2.334,1.277-5.952,3.143-7.647,3.355,0,0,3.5,3.618-.22,5.555a2.674,2.674,0,0,1-2.8-.27c-1.788-1.305-6.754,1.66-13.954,3.2,0,0-28.064,29.043-34.591,24.12Z" transform="translate(-603.177 -202.162)"></path>
                        <path class="n" d="M934.3,238.082s-2.611,11.1,0,18.927l-11.748,1.632-10.442-5.221v-6.853a47.057,47.057,0,0,0,3.59-22.516Z" transform="translate(-817.314 -189.346)"></path>
                        <path class="o" d="M981.548,574.831s-8.513,16.643-7.179,27.738-11.1,1.305-9.79-5.221c1.057-5.278-3.654-27.667-5.491-35.995a3.717,3.717,0,0,1,2.469-4.335c3.923-1.291,10.492-2.873,13.791-.454C980.221,560.146,981.548,574.831,981.548,574.831Z" transform="translate(-897.826 -285.608)"></path>
                        <path class="o" d="M907.388,608.189s11.1,14.358,14.032,14.685,4.895,4.895,0,5.874a54.865,54.865,0,0,1-29.086-2.838,4.441,4.441,0,0,1-2.788-4.725l1.873-13.975Z" transform="translate(-791.381 -300.691)"></path>
                        <path class="p" d="M934.373,393.78l10.641,1.419a155.733,155.733,0,0,0,.128,37.407V477.3s.206,3.937-7.967,9.662a305.533,305.533,0,0,0-24.744,19.154l-29.61,25.652s-11.748-14.358-10.116-22.843c0,0,19.579-6.2,22.19-16.316,1.5-5.789,9.088-10.641,15.3-13.692a19.026,19.026,0,0,0,10.18-21.594,16.651,16.651,0,0,0-1.667-4.193c-5.221-9.137-12.727-29.7-12.727-29.7l14.358-27.369Z" transform="translate(-800.092 -238.669)"></path>
                        <path class="q" d="M934.373,393.78l10.641,1.419a155.733,155.733,0,0,0,.128,37.407V477.3s.206,3.937-7.967,9.662a305.533,305.533,0,0,0-24.744,19.154l-29.61,25.652s-11.748-14.358-10.116-22.843c0,0,19.579-6.2,22.19-16.316,1.5-5.789,9.088-10.641,15.3-13.692a19.026,19.026,0,0,0,10.18-21.594,16.651,16.651,0,0,0-1.667-4.193c-5.221-9.137-12.727-29.7-12.727-29.7l14.358-27.369Z" transform="translate(-800.092 -238.669)"></path>
                        <path class="p" d="M930.957,547.217s-19.253,3.263-19.906,5.221,0-2.611,0-2.611-11.095-33.611-8.513-63.3-3.263-49.275-3.263-49.275-6.853-22.19-2.937-34.917,45.033-7.179,45.033-7.179-14.358,33.612-14.032,49.6c0,0-1.632,48.3-4.569,53.844C922.8,498.574,927.368,545.891,930.957,547.217Z" transform="translate(-812.34 -238.72)"></path>
                        <path class="i" d="M893.634,255.79s-1.958,12.06-21.537,6.853l13.025,99.2s37.854,1.305,37.527-3.263l-7.8-60.037Z" transform="translate(-777.28 -198.57)"></path>
                        <path class="f" d="M843.139,254.87a15.905,15.905,0,0,0,9.428,4.476,22.935,22.935,0,0,1,9.265,2.753c3.356,1.88,7.094,4.611,8.229,7.938,2.284,6.527,16.643,17.3,23.169,15.011l-2.284,19.579s-18.6-.979-21.864-8.158l5.54,69.869h-4.895s-2.611-18.927-4.568-22.843-5.874-25.453-6.2-30.675-5.221-35.243-9.464-40.436l-6.385-15.5Z" transform="translate(-727.295 -198.302)"></path>
                        <path class="f" d="M842.2,256.25a20.2,20.2,0,0,0,10.081,4.15,22.934,22.934,0,0,1,9.258,2.767c3.356,1.88,7.094,4.611,8.229,7.938,2.284,6.527,16.643,17.3,23.169,15.011L890.652,305.7s-18.6-.979-21.864-8.158l5.548,69.826h-4.9s-2.61-18.927-4.569-22.843-5.874-25.453-6.2-30.675-5.221-35.243-9.463-40.436L842.2,258.2Z" transform="translate(-726.357 -198.703)"></path>
                        <path class="r" d="M842.2,255.33a20.2,20.2,0,0,0,10.081,4.15,22.934,22.934,0,0,1,9.265,2.753c3.356,1.88,7.094,4.611,8.229,7.938,2.284,6.526,16.643,17.3,23.169,15.011l-2.284,19.579s-18.6-.979-21.864-8.158l5.54,69.869h-4.895s-2.611-18.927-4.568-22.843-5.874-25.453-6.2-30.675-5.221-35.243-9.463-40.436l-7.016-15.174Z" transform="translate(-726.354 -198.436)"></path>
                        <path class="f" d="M912.926,234.078c.426-3.093-.426-5.023-.816-8.648l18.6,14.032s-.447,1.894-.787,4.668a17.734,17.734,0,0,1-2.838.227C920.63,244.357,915.983,239.313,912.926,234.078Z" transform="translate(-813.725 -189.747)"></path>
                        <ellipse class="n" cx="17.622" cy="17.622" rx="17.622" ry="17.622" transform="translate(95.774 18.395)"></ellipse>
                        <path class="f" d="M932.7,195.732a22.306,22.306,0,0,0-1.419-8.719,2.178,2.178,0,0,1-.369,2.838,13.962,13.962,0,0,0-4.427-7.846A2.4,2.4,0,0,1,928.076,185a6.812,6.812,0,0,1-2.178,3.065,5.475,5.475,0,0,0-2.689-4.632,16.131,16.131,0,0,0-5.25-1.9,3.043,3.043,0,0,1,2.015,3.121.871.871,0,0,1-.262.6,1,1,0,0,1-.6.156,45.675,45.675,0,0,1-5.512-.121,57.8,57.8,0,0,0-6.789-.362c-7.094.3-14.224,5.143-15.813,12.06a27.718,27.718,0,0,0-.518,5.093l-.348,8.733a31.921,31.921,0,0,0,.312,7.633,16.175,16.175,0,0,0,8.307,10.982c2.561-3.71,2.788-8.477,3.675-12.9a6.526,6.526,0,0,1,1.107-2.838,2.49,2.49,0,0,1,2.731-.922,1.568,1.568,0,0,1,.575,2.5c.709.837,2.036.213,2.838-.532a15.239,15.239,0,0,0,4.42-7.9c.319-1.518.638-3.391,2.128-3.909a3.959,3.959,0,0,1,1.575-.106c3.107.213,7.967,1.5,10.974.511C931.538,202.436,932.7,198.35,932.7,195.732Z" transform="translate(-800.074 -176.99)"></path>
                        <path class="s" d="M933.161,195.272a22.3,22.3,0,0,0-1.419-8.719,2.178,2.178,0,0,1-.369,2.838,13.961,13.961,0,0,0-4.427-7.846,2.4,2.4,0,0,1,1.589,2.994,6.811,6.811,0,0,1-2.178,3.065,5.475,5.475,0,0,0-2.689-4.632,16.133,16.133,0,0,0-5.25-1.9,3.043,3.043,0,0,1,2.015,3.121.872.872,0,0,1-.263.6,1,1,0,0,1-.6.156,45.677,45.677,0,0,1-5.512-.121,57.81,57.81,0,0,0-6.789-.362c-7.094.3-14.224,5.143-15.813,12.06a27.729,27.729,0,0,0-.518,5.093l-.348,8.733a31.93,31.93,0,0,0,.312,7.633,16.175,16.175,0,0,0,8.307,10.982c2.561-3.71,2.788-8.477,3.675-12.9A6.527,6.527,0,0,1,904,213.234a2.49,2.49,0,0,1,2.731-.922,1.568,1.568,0,0,1,.575,2.5c.709.837,2.036.213,2.838-.532a15.238,15.238,0,0,0,4.42-7.9c.319-1.518.638-3.391,2.128-3.909a3.958,3.958,0,0,1,1.575-.106c3.107.213,7.967,1.5,10.974.511C932,201.969,933.161,197.89,933.161,195.272Z" transform="translate(-800.86 -176.856)"></path>
                        <path class="f" d="M845.078,297.42s2.611,12.06-2.284,19.579l-2.774-.227,1.511-19.154Z" transform="translate(-677.647 -210.667)"></path>
                        <path class="r" d="M846.078,297.42s2.611,12.06-2.284,19.579l-2.774-.227,1.511-19.154Z" transform="translate(-679.356 -210.667)"></path>
                        <path class="f" d="M938.39,251l-21.048,18.111s-12.4,12.727-7.179,33.285c0,0,2.284,30.022,4.9,31.327,0,0,9.137,18.274,9.79,35.569,0,0,12.237-24.638,17.785-9.627S961.077,376.8,961.077,376.8L953.9,288.01S935.779,256.519,938.39,251Z" transform="translate(-841.8 -197.178)"></path>
                        <path class="r" d="M939.31,251l-21.048,18.111s-12.4,12.727-7.179,33.285c0,0,2.284,30.022,4.895,31.327,0,0,9.137,18.274,9.79,35.569,0,0,12.89-25.943,18.444-10.932S962,376.805,962,376.805l-7.179-88.753S936.7,256.519,939.31,251Z" transform="translate(-843.373 -197.178)"></path>
                        <path class="n" d="M949.046,358.567s-5.221-3.59-13.706,6.2l20.885,37.854,7.016-10.591S948.393,362.809,949.046,358.567Z" transform="translate(-862.735 -228.25)"></path>
                        <path class="f" d="M968.445,359.548s-11.549,12.968-16.054,10.889l-4.171-9.712L963.877,354Z" transform="translate(-877.076 -227.109)"></path>
                        <path class="r" d="M968.445,358.627S956.9,371.6,952.391,369.517l-4.171-9.712,15.656-6.725Z" transform="translate(-877.076 -226.842)"></path>
                        <path class="f" d="M941.908,402.51s-5.5,11.265-8.428,11.918l4.256,4.895,6.2-11.748Z" transform="translate(-842.111 -241.206)"></path>
                        <path class="p" d="M941.428,403s-5.5,11.265-8.428,11.918l4.256,4.895,6.214-11.769Z" transform="translate(-841.305 -241.348)"></path>
                        <path class="f" d="M947.832,304.78s-.653,23.5,1.958,32.306" transform="translate(-858.095 -212.806)"></path>
                        <path class="f" d="M879.916,309.349S876,308.043,876,304.78" transform="translate(-737.314 -212.806)"></path>
                        <path class="j" d="M191.9,316.76s18.6,38.478,6.385,84.015-8.335,100.026,3.845,113.5" transform="translate(426.224 -216.287)"></path>
                        <ellipse class="d" cx="5.129" cy="5.129" rx="5.129" ry="5.129" transform="translate(612.993 95.351)"></ellipse>
                        <path class="j" d="M219.2,350.2s-19.282,3.476-24.411-3.547" transform="translate(406.654 -224.973)"></path>
                        <path class="j" d="M176.724,358.99s11.6-12.833,10.96-20.53" transform="translate(450.961 -222.593)"></path>
                        <path class="j" d="M211,393.275s-10.549,2.781-20.175-17.735" transform="translate(417.676 -233.369)"></path>
                        <path class="j" d="M161.919,413.257s26.248-16.891,23.049-27.787" transform="translate(463.936 -236.254)"></path>
                        <path class="j" d="M217.176,438.63s-18.388-16.316-16.465-32.37" transform="translate(404.578 -242.296)"></path>
                        <path class="j" d="M171.368,461.029s23.41-6.541,22.7-16.8" transform="translate(448.386 -253.33)"></path>
                        <path class="j" d="M222.361,477.991S207.612,464.328,205.69,456" transform="translate(395.761 -256.75)"></path>
                        <path class="j" d="M184.9,508.838s15.132-17.664,15.777-26.638" transform="translate(432.194 -264.364)"></path>
                        <path class="j" d="M225.35,528.977s-16.933-18.813-18.21-27.787" transform="translate(391.743 -269.882)"></path>
                        <ellipse class="d" cx="5.129" cy="5.129" rx="5.129" ry="5.129" transform="translate(633.516 112.022)"></ellipse>
                        <ellipse class="d" cx="5.129" cy="5.129" rx="5.129" ry="5.129" transform="translate(639.284 185.771)"></ellipse>
                        <ellipse class="d" cx="5.129" cy="5.129" rx="5.129" ry="5.129" transform="translate(643.774 144.087)"></ellipse>
                        <ellipse class="d" cx="5.129" cy="5.129" rx="5.129" ry="5.129" transform="translate(596.315 116.512)"></ellipse>
                        <ellipse class="d" cx="5.129" cy="5.129" rx="5.129" ry="5.129" transform="translate(596.315 195.391)"></ellipse>
                        <ellipse class="d" cx="5.129" cy="5.129" rx="5.129" ry="5.129" transform="translate(604.651 137.035)"></ellipse>
                        <ellipse class="d" cx="5.129" cy="5.129" rx="5.129" ry="5.129" transform="translate(594.393 229.385)"></ellipse>
                        <ellipse class="d" cx="5.129" cy="5.129" rx="5.129" ry="5.129" transform="translate(629.026 215.914)"></ellipse>
                        <ellipse class="d" cx="5.129" cy="5.129" rx="5.129" ry="5.129" transform="translate(599.522 158.835)"></ellipse>
                     </g>
                  </svg>